<svg width="44" height="44" viewBox="0 0 44 44" fill="none" xmlns="http://www.w3.org/2000/svg">
<path d="M22 13C23.78 13 25.5201 13.5278 27.0001 14.5168C28.4802 15.5057 29.6337 16.9113 30.3149 18.5558C30.9961 20.2004 31.1743 22.01 30.8271 23.7558C30.4798 25.5016 29.6226 27.1053 28.364 28.3639C27.1053 29.6226 25.5016 30.4798 23.7558 30.8271C22.01 31.1743 20.2004 30.9961 18.5559 30.3149C16.9113 29.6337 15.5057 28.4802 14.5168 27.0001C13.5278 25.5201 13 23.78 13 22C12.9972 19.4218 13.9891 16.9419 15.7692 15.0769" stroke="#B35200" stroke-width="1.5" stroke-linecap="round" stroke-linejoin="round"/>
<path d="M13 15.7692L15.7692 15.0769L16.4615 17.8461" stroke="#B35200" stroke-width="1.5" stroke-linecap="round" stroke-linejoin="round"/>
<path d="M22 17.1538V22.6923L25.6 24.4923" stroke="#B35200" stroke-width="1.5" stroke-linecap="round" stroke-linejoin="round"/>
</svg>
