<svg width="120" height="29" viewBox="0 0 120 29" fill="none" xmlns="http://www.w3.org/2000/svg">
<path fill-rule="evenodd" clip-rule="evenodd" d="M34.9024 11.7563C36.478 11.7563 37.9197 12.3214 39.0344 13.2341L37.5184 14.3497C36.7752 13.8427 35.8834 13.5384 34.9024 13.5384C32.3905 13.5384 30.3394 15.5378 30.3394 17.9863C30.3394 20.4493 32.3905 22.4342 34.9024 22.4342C36.1658 22.4342 37.3103 21.9416 38.1278 21.1302L39.4209 22.3907C38.2615 23.5208 36.6712 24.2162 34.9024 24.2162C31.3798 24.2162 28.5112 21.4345 28.5112 17.9863C28.5112 14.5526 31.3798 11.7563 34.9024 11.7563Z" fill="white"/>
<path fill-rule="evenodd" clip-rule="evenodd" d="M42.5276 11.9157V13.5819C43.672 12.4663 45.2773 11.7563 47.046 11.7563C49.2458 11.7563 51.178 12.843 52.3373 14.4946C51.9212 15.0597 51.5942 15.6827 51.3861 16.3636L51.3118 16.4216C50.6578 14.7409 48.9931 13.5384 47.046 13.5384C44.7422 13.5384 42.8397 15.2045 42.5276 17.3633V17.9863V18.6093V24.2017H40.6548V17.9863V11.9157H42.5276Z" fill="white"/>
<path fill-rule="evenodd" clip-rule="evenodd" d="M76.3413 8.38049V13.6252C75.1968 12.4952 73.5916 11.7997 71.8229 11.7997C68.3003 11.7997 65.4316 14.5815 65.4316 18.0297C65.4316 21.4634 68.3003 24.2451 71.8229 24.2451C75.3306 24.2451 78.1695 21.5068 78.2141 18.1021V18.0297V8.38049H76.3413ZM71.8229 13.5673C69.311 13.5673 67.2598 15.5667 67.2598 18.0297C67.2598 20.4782 69.311 22.4775 71.8229 22.4775C74.3496 22.4775 76.3859 20.4782 76.3859 18.0297C76.3859 15.5667 74.3496 13.5673 71.8229 13.5673Z" fill="white"/>
<path fill-rule="evenodd" clip-rule="evenodd" d="M64.8818 18.4644C64.8521 18.6238 64.8372 18.7687 64.8224 18.899H62.9644H62.7266H59.0703V17.088L59.0851 17.0735H62.9793C62.5334 15.0597 60.7052 13.5384 58.5055 13.5384C56.3057 13.5384 54.4627 15.0597 54.0316 17.0735H54.0465C53.9722 17.3633 53.9424 17.6675 53.9424 17.9863C53.9424 18.305 53.9722 18.6093 54.0465 18.899H54.0316C54.4478 20.8405 56.1571 22.3183 58.2379 22.4342V24.2162C54.8342 24.0713 52.1143 21.3476 52.1143 17.9863C52.1143 14.5526 54.968 11.7563 58.5055 11.7563C62.0281 11.7563 64.8967 14.5526 64.8967 17.9863C64.8967 18.1457 64.8818 18.305 64.8818 18.4644Z" fill="white"/>
<path fill-rule="evenodd" clip-rule="evenodd" d="M83.0447 14.6829V24.2451H81.0679V14.6829H83.0447Z" fill="white"/>
<path fill-rule="evenodd" clip-rule="evenodd" d="M83.0447 13.4369V11.7273H81.0679V13.4369H83.0447Z" fill="white"/>
<path fill-rule="evenodd" clip-rule="evenodd" d="M19.0435 24.1872C17.2747 23.1875 15.8924 22.1298 14.8817 21.0287C13.8413 19.8987 13.1279 18.7831 12.7266 17.6675C12.3847 16.7402 12.2361 15.842 12.2807 14.9727V14.9582V14.9437V14.9292V14.9147V14.9002V14.8857V14.8712V14.8568H12.2955V14.8423V14.8278V14.8133V14.7988V14.7843V14.7698V14.7553V14.7408V14.7264V14.7119V14.6974V14.6829L12.3104 14.6684V14.6539V14.6394V14.6249V14.6105V14.596V14.5815V14.567V14.5525V14.538L12.3253 14.5235V14.509V14.4945V14.4801V14.4656V14.4511V14.4221L12.3401 14.4076C12.4888 13.35 12.8306 12.3648 13.3508 11.4665C13.5589 11.1478 13.767 10.8145 14.0197 10.4958C14.2723 10.1626 14.525 9.84382 14.8074 9.55406L14.8223 9.53957L14.8372 9.52508V9.51059H14.852V9.4961H14.8669V9.48161L14.8817 9.46713L14.8966 9.45264L14.9115 9.43815L14.9263 9.42366V9.40917H14.9412V9.39469H14.9561V9.3802L14.9709 9.36571L14.9858 9.35122H15.0006V9.33673L15.0155 9.32224L15.0304 9.30776L15.0452 9.29327V9.27878H15.0601V9.26429H15.075L15.0898 9.2498L15.1047 9.23531V9.22083H15.1196L15.1344 9.20634V9.19185H15.1493V9.17736H15.1641V9.16287L15.179 9.14839H15.1939V9.1339H15.2087L15.2236 9.11941V9.10492H15.2385V9.09043H15.2533V9.07594H15.2682V9.06146H15.2831V9.04697L15.2979 9.03248H15.3128V9.01799L15.3276 9.0035H15.3425L15.3574 8.98901V8.97453H15.3722V8.96004H15.3871V8.94555L15.402 8.93106H15.4168L15.4317 8.90209H15.4465V8.8876H15.4614V8.87311H15.4763V8.85862H15.4911L15.6398 8.71374V8.69925H15.6546L15.6695 8.68476V8.67027H15.6844L15.6992 8.65579L15.7289 8.62681H15.7438V8.61232H15.7587V8.59783H15.7735V8.58334H15.7884V8.56886H15.8033V8.55437H15.8181L15.833 8.53988V8.52539H15.8479L15.8627 8.5109L15.8776 8.49641H15.8924V8.48193H15.9073V8.46744H15.9222V8.45295H15.937V8.43846H15.9519L15.9668 8.42397L15.9816 8.40949H15.9965V8.395H16.0114V8.38051H16.0262V8.36602H16.0411V8.35153H16.0559L16.0708 8.33704H16.0857V8.32256H16.1005V8.30807C16.2194 8.22114 16.3383 8.13421 16.4424 8.06177L18.7165 9.33673L19.6529 9.85831V9.8728H19.638V9.88729H19.6231V9.90177H19.6083V9.91626H19.5934L19.5785 9.93075L19.5637 9.94524L19.5488 9.95973H19.5339V9.97421H19.5191V9.9887H19.5042V10.0032H19.4894V10.0177H19.4745V10.0322H19.4596L19.4448 10.0467L19.4299 10.0611L19.415 10.0756H19.4002V10.0901H19.3853V10.1046H19.3705V10.1191H19.3556V10.1336H19.3407V10.1481H19.3259V10.1626H19.311L19.2961 10.1771L19.2813 10.1915L19.2664 10.206H19.2515V10.2205L19.2367 10.235C19.1178 10.3364 19.0137 10.4378 18.8948 10.5393L18.88 10.5537L18.8651 10.5682L18.8502 10.5827L18.8354 10.5972L18.8205 10.6117H18.8056V10.6262L18.7908 10.6407L18.7759 10.6552H18.7611V10.6697L18.7462 10.6841H18.7313V10.6986H18.7165V10.7131H18.7016L18.6867 10.7421C18.4787 10.9449 18.2854 11.1478 18.0922 11.3361C18.0179 11.423 17.9436 11.4955 17.8693 11.5824C17.3342 12.2054 16.9477 12.8574 16.7397 13.5093C16.7248 13.5383 16.7248 13.5673 16.7099 13.5963C16.6951 13.6687 16.6802 13.7267 16.6653 13.7846V13.7991C16.6505 13.8281 16.6505 13.8426 16.6356 13.8716V13.9005C16.6356 13.915 16.6207 13.944 16.6207 13.973C16.6207 14.0019 16.6059 14.0309 16.6059 14.0599V14.0744C16.591 14.1034 16.591 14.1323 16.591 14.1613V14.1758L16.5762 14.2482V14.2627C16.5762 14.2917 16.5613 14.3207 16.5613 14.3352V14.3642V14.4366V14.4656L16.5464 14.5235V14.5525C16.5464 14.5815 16.5464 14.596 16.5464 14.6249V14.6684V14.7119V14.7698V14.7988V14.8423V14.9147V14.9582C16.6059 15.8275 16.9775 16.7257 17.676 17.6095C17.4828 17.8124 17.2747 18.0297 17.0369 18.247C16.7842 18.4788 16.5167 18.7251 16.2343 18.9569L15.6844 19.4205L16.3086 19.7828L19.5191 21.5793L19.8015 21.7532L20.0839 21.5648C20.2177 21.4634 20.3663 21.362 20.5001 21.2461C20.6487 21.1302 20.7825 21.0143 20.946 20.8694C21.0054 20.8114 21.05 20.768 21.1095 20.71L19.0435 24.1872ZM18.3746 18.3629C18.9246 18.899 19.6083 19.435 20.4109 19.9566C20.3514 20.0146 20.292 20.0725 20.2325 20.1305C20.0988 20.2464 19.9798 20.3623 19.8461 20.4637C19.8164 20.4927 19.7718 20.5217 19.742 20.5361L17.4531 19.2467C17.5571 19.1598 17.6612 19.0583 17.7652 18.9714C17.9733 18.7686 18.1814 18.5657 18.3746 18.3629Z" fill="#00BAD3"/>
<path fill-rule="evenodd" clip-rule="evenodd" d="M98.2501 13.4369V11.7273H95.3071V13.4369H98.2501Z" fill="white"/>
<path fill-rule="evenodd" clip-rule="evenodd" d="M108 23.97C107.406 24.1873 106.544 24.2452 105.904 24.2597C104.864 24.2597 103.764 24.0569 102.976 23.347C102.278 22.695 102.025 21.7967 102.025 20.8695V13.437H99.5132V11.7274H102.025V8.38062H104.805V11.7274H107.822V13.437H104.805V20.5652C104.805 22.4777 106.38 22.7385 108 22.2893V23.97Z" fill="white"/>
<path fill-rule="evenodd" clip-rule="evenodd" d="M98.2501 14.6829V24.1871H95.3071V14.6829H98.2501Z" fill="white"/>
<path fill-rule="evenodd" clip-rule="evenodd" d="M90.6103 13.4371V24.1873H87.5782V13.4371H85.3784V11.7274H87.5782V10.3076C87.5782 8.71389 88.0835 7.23609 89.3915 6.20743C91.19 4.81656 93.7019 4.87451 95.8422 5.26569C96.1097 5.32365 96.3327 5.3816 96.5259 5.43955V7.12019C96.0205 7.00428 95.5449 6.91735 95.0841 6.84491C92.379 6.46822 90.6103 7.51137 90.6103 10.3511V11.7274H94.0586V13.4371H93.1816H90.6103Z" fill="white"/>
<path fill-rule="evenodd" clip-rule="evenodd" d="M17.1856 5.01929C18.9544 6.03346 20.3366 7.07662 21.3473 8.17772C22.3878 9.30781 23.1012 10.4234 23.5174 11.539C23.9187 12.6691 24.0376 13.7412 23.889 14.7988C23.7403 15.871 23.3985 16.8417 22.8783 17.74C22.685 18.0587 22.4621 18.3919 22.2094 18.7252C21.9567 19.0439 21.7041 19.3626 21.4217 19.6669C21.1541 19.9567 20.8717 20.2319 20.5893 20.5072C20.3069 20.7535 20.0394 20.9708 19.7867 21.1447L16.5762 19.3482C17.1559 18.8556 17.6761 18.363 18.1369 17.8704C19.9799 15.8855 20.2475 13.7267 18.553 11.5969C18.7463 11.3941 18.9544 11.1913 19.1922 10.974C19.4448 10.7277 19.7124 10.4814 19.9948 10.2495L20.5447 9.78592L19.9205 9.42371L16.71 7.62717L16.4276 7.4678L16.1601 7.64166C15.9966 7.74308 15.8628 7.85898 15.729 7.9604C15.5804 8.07631 15.4466 8.19221 15.2831 8.33709V8.35158L15.1196 8.49646L17.1856 5.01929Z" fill="#FF7600"/>
</svg>
